<?xml version="1.0" encoding="utf-8"?>
<!-- Generator: Adobe Illustrator 21.1.0, SVG Export Plug-In . SVG Version: 6.00 Build 0)  -->
<svg version="1.1" id="Capa_1" xmlns="http://www.w3.org/2000/svg" xmlns:xlink="http://www.w3.org/1999/xlink" x="0px" y="0px"
	 viewBox="0 0 601.5 190.6" style="enable-background:new 0 0 601.5 190.6;" xml:space="preserve">
<style type="text/css">
	.st0{fill:#1760D2;}
	.st1{fill:#808080;}
	.st2{fill:#383838;}
	.st3{fill:#A1A1A1;}
</style>
<title>Logo-cladian-digital-cladian</title>
<rect x="362" class="st0" width="36.4" height="22"/>
<path class="st0" d="M562,28.6c-18.4,0-31.8,6.7-39.2,15.8h-0.3V31h-35.4v0.1c-9.2-2.2-20.4-2.9-32.7-2.9c-25,0-48.2,3-55.9,22.3
	V32.7H362v93.2h36.4v-7.6c7.6,6.2,20,9.4,36.9,9.4c18.4,0,33.4-2.4,43.8-12.4c0.1,3,0.8,5.9,1.9,8.6h6v0.3h36.4V78.4
	c0-15.3,9.8-22.3,22.7-22.3c12.2,0,18.9,5.8,18.9,17.7v50.4h36.4V62.8C601.5,39.6,584.9,28.6,562,28.6z M398.5,59.8h34.1
	c1.7-7.9,8.2-11.7,21.7-11.7c16,0,23,3.4,23,10c0,4.8-1.5,6.9-11,7.6L430,68.1c-14.2,0.9-24.8,3.6-31.5,9.2L398.5,59.8z M478.3,86
	c0,12.7-11.7,20.6-32.7,20.6c-9.8,0-16.3-4.1-16.3-11.3c0-5.7,3.1-8.6,10.5-9.5l24.6-2.9c4.7-0.5,9.4-1.4,13.9-2.6V86z"/>
<path class="st1" d="M234.7,165.8L234.7,165.8c-1.8,2.4-5.5,3.8-8.9,3.8c-7,0-12.7-4.5-12.7-12.3c0-7.8,5.6-12.3,12.7-12.3
	c3.5,0,7.1,1.2,8.8,3.8h0.1v-12h4.4v32h-4.4V165.8z M226.4,165.9c6,0,8.6-4.2,8.6-8.6c0-5.3-3.4-8.6-8.6-8.6s-8.5,3.2-8.5,8.6
	C217.8,161.7,220.4,165.9,226.4,165.9L226.4,165.9z"/>
<path class="st1" d="M244.6,136.8h4.4v4.9h-4.4V136.8z M244.6,145.5h4.4v23.3h-4.4V145.5z"/>
<path class="st1" d="M275.3,145.5h4.4v21.3c0,8.4-4,11.7-13.6,11.7c-5,0-10.8-0.8-11.7-7.2h4.4c0.8,3,3.5,3.8,7.7,3.8
	c6.3,0,8.7-3.2,8.7-7v-3.4h-0.1c-2.5,3.6-6,4.3-9,4.3c-6.2,0-12.8-3.4-12.8-12S260,145,266.2,145c3.8,0,7.3,1.3,9.1,4h0.1
	L275.3,145.5z M266.8,148.7c-5.4,0-8.6,3.6-8.6,8.4s3.2,8.2,8.6,8.2c5.4,0,8.6-3.4,8.6-8.2S272.1,148.7,266.8,148.7L266.8,148.7z"/>
<path class="st1" d="M284.9,136.8h4.4v4.9h-4.4V136.8z M284.9,145.5h4.4v23.3h-4.4V145.5z"/>
<path class="st1" d="M296.8,138.3h4.4v7.2h6.7v3.5h-6.7v14.4c0,1.9,1.3,2.5,3.6,2.5c1,0,2.1-0.1,3.1-0.3v3.7c-1.6,0.2-3.3,0.3-5,0.3
	c-4.4,0-6.1-2.1-6.1-5.5V149H292v-3.4h4.8L296.8,138.3z"/>
<path class="st1" d="M311.2,152.8c0.6-5.8,4.6-8.1,11.6-8.1c4.8,0,10.7,1.2,10.7,6.6v12.5c0,1.4,0.6,2,2,2c0.5,0,1-0.1,1.5-0.2v3.1
	c-1.1,0.2-2.3,0.3-3.5,0.3c-2.2,0-3.7-0.6-4-3.2c-1.8,2.4-6.1,3.8-9.9,3.8c-7.7,0-9.5-4-9.5-7c0-4.3,2.5-6.4,10-7.2l5.1-0.5
	c2.5-0.3,4-0.7,4-2.8c0-3.2-3.1-3.8-6.7-3.8c-3.8,0-7.1,1-7.2,4.6L311.2,152.8z M329.3,156.6c-0.7,0.8-1.9,1.1-4.4,1.4l-5,0.6
	c-3.5,0.4-5.3,1.4-5.3,3.8c0,2.2,2.2,3.7,5.4,3.7c5,0,9.2-2.7,9.2-6.5V156.6z"/>
<path class="st1" d="M340.1,136.8h4.4v32h-4.4V136.8z"/>
<path class="st1" d="M388.6,160.3c-1.9,7-6.1,9.3-12.1,9.3c-9.2,0-12.7-6.3-12.7-12.3c0-6.9,4.2-12.6,12.6-12.6
	c6.2,0,11.2,2.8,12.1,8.6h-4.7c-0.5-3-2.9-4.8-7.1-4.8c-5.7,0-8.2,3.7-8.2,8.7c0,5,2.5,8.7,8.2,8.7c4,0,6.2-1.7,7.2-5.6L388.6,160.3
	z"/>
<path class="st1" d="M405.3,144.7c9.1,0,13.5,5.7,13.5,12.4c0,6.7-4.4,12.4-13.5,12.4s-13.5-5.7-13.5-12.4S396.2,144.7,405.3,144.7z
	 M405.3,148.4c-6.4,0-8.8,4.5-8.8,8.7s2.3,8.7,8.8,8.7c6.5,0,8.8-4.5,8.8-8.7S411.7,148.4,405.3,148.4z"/>
<path class="st1" d="M423.2,145.5h4.4v3.5h0.1c2.1-3.2,5.8-4.3,9.1-4.3c5.6,0,9.8,2.4,9.8,8.2v15.8h-4.5v-15c0-3.4-2.1-5.4-6.9-5.4
	c-4,0-7.6,2.3-7.6,7v13.4h-4.4L423.2,145.5z"/>
<path class="st1" d="M455.2,161.5c0,2.1,1.7,4.6,7.3,4.6c5.6,0,7.1-2,7.1-3.6s-0.8-2.6-4.4-3.1l-7.3-1c-3.3-0.4-6.3-2.6-6.3-6.2
	c0-4.7,4.1-7.5,10.6-7.5c7.6,0,11,3.3,11.4,7.8h-4.4c-0.1-2.3-2.3-4.4-7-4.4c-2.8,0-6.1,0.8-6.1,3.6c0,1.5,0.7,2.4,3.9,2.9l6.3,0.8
	c5.9,0.8,8.1,2.9,8.1,6.2c0,5.4-4.6,8-11.7,8c-5.3,0-11.4-1.4-11.9-8.1L455.2,161.5z"/>
<path class="st1" d="M501.8,168.8h-4.4v-3.5h-0.1c-2.1,3.2-5.8,4.3-9.1,4.3c-5.6,0-9.8-2.4-9.8-8.2v-15.8h4.4v15
	c0,3.4,2.1,5.4,6.9,5.4c4,0,7.6-2.3,7.6-7v-13.4h4.4V168.8z"/>
<path class="st1" d="M507.2,136.8h4.4v32h-4.4V136.8z"/>
<path class="st1" d="M519.1,138.3h4.4v7.2h6.7v3.5h-6.7v14.4c0,1.9,1.3,2.5,3.6,2.5c1,0,2.1-0.1,3.1-0.3v3.7c-1.6,0.2-3.3,0.3-5,0.3
	c-4.4,0-6.1-2.1-6.1-5.5V149h-4.8v-3.4h4.8L519.1,138.3z"/>
<path class="st1" d="M533.6,136.8h4.4v4.9h-4.4V136.8z M533.6,145.5h4.4v23.2h-4.4V145.5z"/>
<path class="st1" d="M543.5,145.5h4.4v3.5h0.1c2.1-3.2,5.8-4.3,9.1-4.3c5.6,0,9.8,2.4,9.8,8.2v15.8h-4.4v-15c0-3.4-2.1-5.4-6.9-5.4
	c-4,0-7.6,2.3-7.6,7v13.4h-4.4L543.5,145.5z"/>
<path class="st1" d="M593.2,145.5h4.4v21.3c0,8.4-4,11.7-13.6,11.7c-5,0-10.8-0.8-11.7-7.2h4.4c0.8,3,3.5,3.8,7.7,3.8
	c6.3,0,8.7-3.2,8.7-7v-3.4h-0.1c-2.5,3.6-6,4.3-9,4.3c-6.2,0-12.8-3.4-12.8-12S577.8,145,584,145c3.8,0,7.3,1.3,9.1,4h0.1
	L593.2,145.5z M584.6,148.7c-5.4,0-8.6,3.6-8.6,8.4s3.2,8.2,8.6,8.2c5.4,0,8.6-3.4,8.6-8.2S590,148.7,584.6,148.7L584.6,148.7z"/>
<ellipse class="st2" cx="170" cy="157.7" rx="10.3" ry="10.5"/>
<ellipse class="st3" cx="194.4" cy="157.7" rx="10.3" ry="10.5"/>
<ellipse class="st0" cx="145.4" cy="157.7" rx="10.3" ry="10.5"/>
<path class="st0" d="M227.5,79.1c0-14.4,5.7-27.3,16.2-36.2C233.4,34.2,215.1,32,193.3,32c-15.1,0-29.6,1.1-40.4,6.3V5.1h-36.4v43.5
	c-11.1-10.7-29.1-14.9-51.2-14.9C25.3,33.7,0,50.3,0,84c0,34.4,24.1,50.4,65.3,50.4c24.6,0,40.8-5.5,51.1-15.6v12.1h36.4v-1.8
	c7,1.6,14.2,2.3,21.3,2.2c18.4,0,33.3-2.4,43.8-12.4c0.2,2.9,0.8,5.9,1.9,8.6h36.4c-0.6-1.1-1.1-2.1-1.5-3
	C237.7,117,227.5,101.4,227.5,79.1z M116.5,92.6H91.3c-2.4,11.9-11.5,17.7-25.3,17.7c-17.5,0-27.5-9.5-27.5-26.3
	s10.3-26.3,27.3-26.3c15.5,0,23,5.8,24.8,16h25.9L116.5,92.6z M152.9,63.6h18.6c1.7-7.9,8.2-11.7,21.7-11.7c16,0,23,3.4,23,10
	c0,4.8-1.6,6.9-11,7.6l-36.3,2.4c-5.4,0.3-10.7,1-16,2.2L152.9,63.6z M217.2,89.8c0,12.7-11.7,20.6-32.7,20.6
	c-9.8,0-16.3-4.1-16.3-11.3c0-5.7,3.1-8.6,10.5-9.5l24.6-2.9c4.7-0.5,9.4-1.4,13.9-2.7V89.8z"/>
<path class="st2" d="M322.1,114.5h-0.3c-7.7,9.5-20.6,14.8-35.4,14.8c-33,0-54.5-18.2-54.5-50.5c0-27,19.9-48.8,54.2-48.8
	c16.2,0,28.5,5.3,34.7,14.3h0.3V0h36.4v125.5h-35.4V114.5z M295.1,55.3c-16.7,0-25.8,8.2-25.8,23.7s9.1,23.7,25.8,23.7
	c17,0,26-9.3,26-23.7S312.1,55.3,295.1,55.3L295.1,55.3z"/>
</svg>
